<svg viewBox="0 0 1024 1024" xmlns="http://www.w3.org/2000/svg" xmlns:xlink="http://www.w3.org/1999/xlink"><path d="M839.68 734.72c0 33.28-17.92 40.96-17.92 40.96S519.68 949.76 499.2 960c-10.24 5.12-20.48 5.12-30.72 0 0 0-314.88-184.32-325.12-192a56.32 56.32 0 0 1-12.8-20.48V368.64c0-17.92 20.48-28.224 20.48-28.224l314.944-181.76c12.8-5.12 25.6-5.12 38.4 0 0 0 279.04 161.28 309.76 179.2 17.92 7.68 28.288 25.6 25.6 46.08v350.72zM714.24 371.2c-64-35.84-217.6-125.44-217.6-125.44-7.68-5.12-20.48-5.12-30.72 0L217.6 389.12s-17.92 10.24-17.92 23.04v296.96c0 5.12 5.12 12.8 7.68 17.92 7.68 5.056 256 148.48 256 148.48 7.68 5.12 17.92 5.12 25.6 0 15.424-7.68 250.88-145.92 250.88-145.92s12.8-5.12 12.8-30.72V624.64l-276.48 169.088v-64c0-17.92 7.68-30.72 20.48-46.08l248.32-148.672c5.12-7.68 10.24-20.48 10.24-30.72V437.76L476.16 606.72V537.6c0-15.36 5.12-30.72 17.92-38.4l220.16-128z m204.8-235.52c0-5.12-5.12-7.68-7.744-7.68h-58.88v-61.44c0-5.12-5.12-5.12-10.24-5.12l-30.72 5.12c-5.056 0-5.056 2.624-5.056 5.12V128h-56.32c-5.12 0-5.12 5.12-7.68 5.12v38.4h69.12v64c0 5.12 5.12 5.12 10.176 5.12l30.72-5.12c5.12 0 5.12-2.56 5.12-5.12v-56.32h64l-2.56-38.4z"></path></svg>